<svg id="SvgjsSvg1006" width="741" height="464.4609375" xmlns="http://www.w3.org/2000/svg" version="1.1" xmlns:xlink="http://www.w3.org/1999/xlink" xmlns:svgjs="http://svgjs.com/svgjs"><defs id="SvgjsDefs1007"><pattern patternUnits="userSpaceOnUse" id="pattern_mark_0" width="300" height="300"><text x="150" y="100" fill="rgba(229,229,229,0.8)" font-size="18" transform="rotate(-45, 150, 150)" style="dominant-baseline: middle; text-anchor: middle;"></text></pattern><pattern patternUnits="userSpaceOnUse" id="pattern_mark_1" width="300" height="300"><text x="150" y="200" fill="rgba(229,229,229,0.8)" font-size="18" transform="rotate(-45, 150, 150)" style="dominant-baseline: middle; text-anchor: middle;"></text></pattern><marker id="SvgjsMarker1149" markerWidth="14" markerHeight="10" refX="10" refY="5" viewBox="0 0 14 10" orient="auto" markerUnits="userSpaceOnUse" stroke-dasharray="0,0"><path id="SvgjsPath1150" d="M0,0 L14,5 L0,10 L0,0" fill="#262626" stroke="#262626" stroke-width="1"></path></marker><marker id="SvgjsMarker1189" markerWidth="13" markerHeight="9" refX="9.5" refY="4.5" viewBox="0 0 13 9" orient="auto" markerUnits="userSpaceOnUse" stroke-dasharray="0,0"><path id="SvgjsPath1190" d="M0,0 L13,4.5 L0,9 L0,0" fill="#323232" stroke="#323232" stroke-width="1"></path></marker><marker id="SvgjsMarker1193" markerWidth="16" markerHeight="16" refX="3" refY="8" viewBox="0 0 16 16" orient="auto" markerUnits="userSpaceOnUse" stroke-dasharray="0,0"><circle id="SvgjsCircle1194" r="4" cx="8" cy="8" fill="#ffffff" stroke="#323232" stroke-width="1.5"></circle></marker><marker id="SvgjsMarker1195" markerWidth="16" markerHeight="16" refX="13" refY="8" viewBox="0 0 16 16" orient="auto" markerUnits="userSpaceOnUse" stroke-dasharray="0,0"><circle id="SvgjsCircle1196" r="4" cx="8" cy="8" fill="#ffffff" stroke="#323232" stroke-width="1.5"></circle></marker><marker id="SvgjsMarker1214" markerWidth="13" markerHeight="9" refX="9.5" refY="4.5" viewBox="0 0 13 9" orient="auto" markerUnits="userSpaceOnUse" stroke-dasharray="0,0"><path id="SvgjsPath1215" d="M0,0 L13,4.5 L0,9 L0,0" fill="#323232" stroke="#323232" stroke-width="1"></path></marker><marker id="SvgjsMarker1218" markerWidth="13" markerHeight="9" refX="9.5" refY="4.5" viewBox="0 0 13 9" orient="auto" markerUnits="userSpaceOnUse" stroke-dasharray="0,0"><path id="SvgjsPath1219" d="M0,0 L13,4.5 L0,9 L0,0" fill="#323232" stroke="#323232" stroke-width="1"></path></marker><marker id="SvgjsMarker1222" markerWidth="13" markerHeight="9" refX="9.5" refY="4.5" viewBox="0 0 13 9" orient="auto" markerUnits="userSpaceOnUse" stroke-dasharray="0,0"><path id="SvgjsPath1223" d="M0,0 L13,4.5 L0,9 L0,0" fill="#323232" stroke="#323232" stroke-width="1"></path></marker><marker id="SvgjsMarker1226" markerWidth="13" markerHeight="9" refX="9.5" refY="4.5" viewBox="0 0 13 9" orient="auto" markerUnits="userSpaceOnUse" stroke-dasharray="0,0"><path id="SvgjsPath1227" d="M0,0 L13,4.5 L0,9 L0,0" fill="#323232" stroke="#323232" stroke-width="1"></path></marker><marker id="SvgjsMarker1242" markerWidth="13" markerHeight="9" refX="9.5" refY="4.5" viewBox="0 0 13 9" orient="auto" markerUnits="userSpaceOnUse" stroke-dasharray="0,0"><path id="SvgjsPath1243" d="M0,0 L13,4.5 L0,9 L0,0" fill="#323232" stroke="#323232" stroke-width="1"></path></marker><marker id="SvgjsMarker1246" markerWidth="13" markerHeight="9" refX="9.5" refY="4.5" viewBox="0 0 13 9" orient="auto" markerUnits="userSpaceOnUse" stroke-dasharray="0,0"><path id="SvgjsPath1247" d="M0,0 L13,4.5 L0,9 L0,0" fill="#323232" stroke="#323232" stroke-width="1"></path></marker><marker id="SvgjsMarker1250" markerWidth="16" markerHeight="16" refX="3" refY="8" viewBox="0 0 16 16" orient="auto" markerUnits="userSpaceOnUse" stroke-dasharray="0,0"><circle id="SvgjsCircle1251" r="4" cx="8" cy="8" fill="#ffffff" stroke="#323232" stroke-width="1.5"></circle></marker><marker id="SvgjsMarker1252" markerWidth="16" markerHeight="16" refX="13" refY="8" viewBox="0 0 16 16" orient="auto" markerUnits="userSpaceOnUse" stroke-dasharray="0,0"><circle id="SvgjsCircle1253" r="4" cx="8" cy="8" fill="#ffffff" stroke="#323232" stroke-width="1.5"></circle></marker><marker id="SvgjsMarker1256" markerWidth="13" markerHeight="9" refX="9.5" refY="4.5" viewBox="0 0 13 9" orient="auto" markerUnits="userSpaceOnUse" stroke-dasharray="0,0"><path id="SvgjsPath1257" d="M0,0 L13,4.5 L0,9 L0,0" fill="#323232" stroke="#323232" stroke-width="1"></path></marker><marker id="SvgjsMarker1260" markerWidth="13" markerHeight="9" refX="9.5" refY="4.5" viewBox="0 0 13 9" orient="auto" markerUnits="userSpaceOnUse" stroke-dasharray="0,0"><path id="SvgjsPath1261" d="M0,0 L13,4.5 L0,9 L0,0" fill="#323232" stroke="#323232" stroke-width="1"></path></marker></defs><rect id="svgbackgroundid" width="741" height="464.4609375" fill="#ffffff"></rect><rect id="SvgjsRect1009" width="741" height="464.4609375" fill="url(#pattern_mark_0)"></rect><rect id="SvgjsRect1010" width="741" height="464.4609375" fill="url(#pattern_mark_1)"></rect><g id="SvgjsG1011" transform="translate(500.73076923076917,238.28729281767949)"><path id="SvgjsPath1012" d="M 0 4Q 0 0 4 0L 198.76923076923083 0Q 202.76923076923083 0 202.76923076923083 4L 202.76923076923083 109Q 202.76923076923083 113 198.76923076923083 113L 4 113Q 0 113 0 109Z" stroke="none" fill-opacity="1" fill="#d2d6f9"></path><g id="SvgjsG1013"><text id="SvgjsText1014" font-family="微软雅黑" text-anchor="middle" font-size="13px" width="183px" fill="#323232" font-weight="700" align="middle" lineHeight="125%" anchor="middle" family="微软雅黑" size="13px" weight="700" font-style="" opacity="1" y="45.875" transform="rotate(0)"></text></g></g><g id="SvgjsG1015" transform="translate(25,352.70165745856343)"><path id="SvgjsPath1016" d="M 0 10.5L 691 10.5" stroke-dasharray="10,6" stroke="rgba(136,136,136,1)" stroke-width="1" fill="none"></path><path id="SvgjsPath1017" d="M 0 0L 691 0L 691 21L 0 21Z" stroke="none" fill="none"></path></g><g id="SvgjsG1018" transform="translate(25,214.2302427982811)"><path id="SvgjsPath1019" d="M 0 10.5L 691 10.5" stroke-dasharray="10,6" stroke="rgba(136,136,136,1)" stroke-width="1" fill="none"></path><path id="SvgjsPath1020" d="M 0 0L 691 0L 691 21L 0 21Z" stroke="none" fill="none"></path></g><g id="SvgjsG1021" transform="translate(127.00000000000011,89.8442164179105)"><path id="SvgjsPath1022" d="M 0 4Q 0 0 4 0L 400.4999999999999 0Q 404.4999999999999 0 404.4999999999999 4L 404.4999999999999 46.386026380370595Q 404.4999999999999 50.386026380370595 400.4999999999999 50.386026380370595L 4 50.386026380370595Q 0 50.386026380370595 0 46.386026380370595Z" stroke="none" fill-opacity="1" fill="#caedb4"></path><g id="SvgjsG1023"><text id="SvgjsText1024" font-family="微软雅黑" text-anchor="start" font-size="13px" width="385px" fill="#323232" font-weight="700" align="middle" lineHeight="125%" anchor="start" family="微软雅黑" size="13px" weight="700" font-style="" opacity="1" y="14.568013190185297" transform="rotate(0)"><tspan id="SvgjsTspan1025" dy="16.25" x="10"><tspan id="SvgjsTspan1026" style="">Rendering</tspan></tspan></text></g></g><g id="SvgjsG1027" transform="translate(127,379.57458563535897)"><path id="SvgjsPath1028" d="M 0 4Q 0 0 4 0L 572.5 0Q 576.5 0 576.5 4L 576.5 33.42541436464103Q 576.5 37.42541436464103 572.5 37.42541436464103L 4 37.42541436464103Q 0 37.42541436464103 0 33.42541436464103Z" stroke="none" fill-opacity="1" fill="#94e0e1"></path><g id="SvgjsG1029"><text id="SvgjsText1030" font-family="微软雅黑" text-anchor="middle" font-size="13px" width="557px" fill="#323232" font-weight="700" align="middle" lineHeight="125%" anchor="middle" family="微软雅黑" size="13px" weight="700" font-style="" opacity="1" y="8.087707182320514" transform="rotate(0)"><tspan id="SvgjsTspan1031" dy="16.25" x="288.5"><tspan id="SvgjsTspan1032" style="">Linux</tspan></tspan></text></g></g><g id="SvgjsG1033" transform="translate(28.5,378.2872928176795)"><path id="SvgjsPath1034" d="M 0 0L 95 0L 95 40L 0 40Z" stroke="none" fill="none"></path><g id="SvgjsG1035"><text id="SvgjsText1036" font-family="微软雅黑" text-anchor="middle" font-size="13px" width="95px" fill="#323232" font-weight="700" align="middle" lineHeight="125%" anchor="middle" family="微软雅黑" size="13px" weight="700" font-style="" opacity="1" y="9.375" transform="rotate(0)"><tspan id="SvgjsTspan1037" dy="16.25" x="47.5"><tspan id="SvgjsTspan1038" style="">OS</tspan></tspan></text></g></g><g id="SvgjsG1039" transform="translate(127,238.28729281767949)"><path id="SvgjsPath1040" d="M 0 4Q 0 0 4 0L 332.03846153846155 0Q 336.03846153846155 0 336.03846153846155 4L 336.03846153846155 109Q 336.03846153846155 113 332.03846153846155 113L 4 113Q 0 113 0 109Z" stroke-dasharray="10,6" stroke="rgba(231,79,76,1)" stroke-width="4" fill-opacity="1" fill="#fadded"></path><g id="SvgjsG1041"><text id="SvgjsText1042" font-family="微软雅黑" text-anchor="start" font-size="13px" width="317px" fill="#323232" font-weight="700" align="middle" lineHeight="125%" anchor="start" family="微软雅黑" size="13px" weight="700" font-style="" opacity="1" y="45.875" transform="rotate(0)"><tspan id="SvgjsTspan1043" dy="16.25" x="10"><tspan id="SvgjsTspan1044" style="">Docker </tspan></tspan></text></g></g><g id="SvgjsG1045" transform="translate(25,256.5372928176795)"><path id="SvgjsPath1046" d="M 0 0L 95 0L 95 40L 0 40Z" stroke="none" fill="none"></path><g id="SvgjsG1047"><text id="SvgjsText1048" font-family="微软雅黑" text-anchor="middle" font-size="13px" width="95px" fill="#323232" font-weight="700" align="middle" lineHeight="125%" anchor="middle" family="微软雅黑" size="13px" weight="700" font-style="" opacity="1" y="9.375" transform="rotate(0)"><tspan id="SvgjsTspan1049" dy="16.25" x="47.5"><tspan id="SvgjsTspan1050" style="">Runner lifespan</tspan></tspan></text></g></g><g id="SvgjsG1051" transform="translate(127,162)"><path id="SvgjsPath1052" d="M 0 4Q 0 0 4 0L 572.5 0Q 576.5 0 576.5 4L 576.5 48Q 576.5 52 572.5 52L 4 52Q 0 52 0 48Z" stroke="none" fill-opacity="1" fill="#f1e4a2"></path><g id="SvgjsG1053"><text id="SvgjsText1054" font-family="微软雅黑" text-anchor="middle" font-size="13px" width="557px" fill="#323232" font-weight="700" align="middle" lineHeight="125%" anchor="middle" family="微软雅黑" size="13px" weight="700" font-style="" opacity="1" y="15.375" transform="rotate(0)"></text></g></g><g id="SvgjsG1055" transform="translate(25,163.625)"><path id="SvgjsPath1056" d="M 0 0L 95 0L 95 48.75L 0 48.75Z" stroke="none" fill="none"></path><g id="SvgjsG1057"><text id="SvgjsText1058" font-family="微软雅黑" text-anchor="middle" font-size="13px" width="95px" fill="#323232" font-weight="700" align="middle" lineHeight="125%" anchor="middle" family="微软雅黑" size="13px" weight="700" font-style="" opacity="1" y="5.25" transform="rotate(0)"><tspan id="SvgjsTspan1059" dy="16.25" x="47.5"><tspan id="SvgjsTspan1060" style="">Web host</tspan></tspan><tspan id="SvgjsTspan1061" dy="16.25" x="47.5"><tspan id="SvgjsTspan1062" style="">Task queue</tspan></tspan></text></g></g><g id="SvgjsG1063" transform="translate(159.08366141735894,172.5)"><path id="SvgjsPath1064" d="M 0 0L 106.67182412166481 0L 106.67182412166481 31L 0 31Z" stroke="rgba(33,41,48,1)" stroke-width="2" fill-opacity="1" fill="#ffffff"></path><g id="SvgjsG1065"><text id="SvgjsText1066" font-family="微软雅黑" text-anchor="middle" font-size="13px" width="87px" fill="#323232" font-weight="700" align="middle" lineHeight="125%" anchor="middle" family="微软雅黑" size="13px" weight="700" font-style="" opacity="1" y="4.875" transform="rotate(0)"><tspan id="SvgjsTspan1067" dy="16.25" x="53.5"><tspan id="SvgjsTspan1068" style="">Gunicorn</tspan></tspan></text></g></g><g id="SvgjsG1069" transform="translate(25,418.4673507462685)"><path id="SvgjsPath1070" d="M 0 10.5L 691 10.5" stroke-dasharray="10,6" stroke="rgba(136,136,136,1)" stroke-width="1" fill="none"></path><path id="SvgjsPath1071" d="M 0 0L 691 0L 691 21L 0 21Z" stroke="none" fill="none"></path></g><g id="SvgjsG1072" transform="translate(323.6466683753568,251.78729281767949)"><path id="SvgjsPath1073" d="M 0 0L 112 0L 112 37L 0 37Z" stroke="rgba(33,41,48,1)" stroke-width="2" fill-opacity="1" fill="#ffffff"></path><g id="SvgjsG1074"><text id="SvgjsText1075" font-family="微软雅黑" text-anchor="middle" font-size="13px" width="92px" fill="#323232" font-weight="700" align="middle" lineHeight="125%" anchor="middle" family="微软雅黑" size="13px" weight="700" font-style="" opacity="1" y="7.875" transform="rotate(0)"><tspan id="SvgjsTspan1076" dy="16.25" x="56"><tspan id="SvgjsTspan1077" style="">HH-suite</tspan></tspan></text></g></g><g id="SvgjsG1078" transform="translate(294.3039457652314,172.5)"><path id="SvgjsPath1079" d="M 0 0L 106.67182412166481 0L 106.67182412166481 31L 0 31Z" stroke="rgba(33,41,48,1)" stroke-width="2" fill-opacity="1" fill="#ffffff"></path><g id="SvgjsG1080"><text id="SvgjsText1081" font-family="微软雅黑" text-anchor="middle" font-size="13px" width="87px" fill="#323232" font-weight="700" align="middle" lineHeight="125%" anchor="middle" family="微软雅黑" size="13px" weight="700" font-style="" opacity="1" y="4.875" transform="rotate(0)"><tspan id="SvgjsTspan1082" dy="16.25" x="53.5"><tspan id="SvgjsTspan1083" style="">Flask</tspan></tspan></text></g></g><g id="SvgjsG1084" transform="translate(429.52423011310384,172.5)"><path id="SvgjsPath1085" d="M 0 0L 106.67182412166481 0L 106.67182412166481 31L 0 31Z" stroke="rgba(33,41,48,1)" stroke-width="2" fill-opacity="1" fill="#ffffff"></path><g id="SvgjsG1086"><text id="SvgjsText1087" font-family="微软雅黑" text-anchor="middle" font-size="13px" width="87px" fill="#323232" font-weight="700" align="middle" lineHeight="125%" anchor="middle" family="微软雅黑" size="13px" weight="700" font-style="" opacity="1" y="4.875" transform="rotate(0)"><tspan id="SvgjsTspan1088" dy="16.25" x="53.5"><tspan id="SvgjsTspan1089" style="">Celery</tspan></tspan></text></g></g><g id="SvgjsG1090" transform="translate(564.7445144609762,172.5)"><path id="SvgjsPath1091" d="M 0 0L 106.67182412166481 0L 106.67182412166481 31L 0 31Z" stroke="rgba(33,41,48,1)" stroke-width="2" fill-opacity="1" fill="#ffffff"></path><g id="SvgjsG1092"><text id="SvgjsText1093" font-family="微软雅黑" text-anchor="middle" font-size="13px" width="87px" fill="#323232" font-weight="700" align="middle" lineHeight="125%" anchor="middle" family="微软雅黑" size="13px" weight="700" font-style="" opacity="1" y="4.875" transform="rotate(0)"><tspan id="SvgjsTspan1094" dy="16.25" x="53.5"><tspan id="SvgjsTspan1095" style="">Redis</tspan></tspan></text></g></g><g id="SvgjsG1096" transform="translate(25,99)"><path id="SvgjsPath1097" d="M 0 0L 95 0L 95 40L 0 40Z" stroke="none" fill="none"></path><g id="SvgjsG1098"><text id="SvgjsText1099" font-family="微软雅黑" text-anchor="middle" font-size="13px" width="95px" fill="#323232" font-weight="700" align="middle" lineHeight="125%" anchor="middle" family="微软雅黑" size="13px" weight="700" font-style="" opacity="1" y="9.375" transform="rotate(0)"><tspan id="SvgjsTspan1100" dy="16.25" x="47.5"><tspan id="SvgjsTspan1101" style="">Front</tspan></tspan></text></g></g><g id="SvgjsG1102" transform="translate(356.33157559523477,99.5)"><path id="SvgjsPath1103" d="M 0 0L 81.36973417254919 0L 81.36973417254919 31L 0 31Z" stroke="rgba(33,41,48,1)" stroke-width="2" fill-opacity="1" fill="#ffffff"></path><g id="SvgjsG1104"><text id="SvgjsText1105" font-family="微软雅黑" text-anchor="middle" font-size="13px" width="62px" fill="#323232" font-weight="700" align="middle" lineHeight="125%" anchor="middle" family="微软雅黑" size="13px" weight="700" font-style="" opacity="1" y="4.875" transform="rotate(0)"><tspan id="SvgjsTspan1106" dy="16.25" x="41"><tspan id="SvgjsTspan1107" style="">Javascript</tspan></tspan></text></g></g><g id="SvgjsG1108" transform="translate(283.73533301529665,99.5)"><path id="SvgjsPath1109" d="M 0 0L 61.29467047519679 0L 61.29467047519679 31L 0 31Z" stroke="rgba(33,41,48,1)" stroke-width="2" fill-opacity="1" fill="#ffffff"></path><g id="SvgjsG1110"><text id="SvgjsText1111" font-family="微软雅黑" text-anchor="middle" font-size="13px" width="42px" fill="#323232" font-weight="700" align="middle" lineHeight="125%" anchor="middle" family="微软雅黑" size="13px" weight="700" font-style="" opacity="1" y="4.875" transform="rotate(0)"><tspan id="SvgjsTspan1112" dy="16.25" x="31"><tspan id="SvgjsTspan1113" style="">CSS</tspan></tspan></text></g></g><g id="SvgjsG1114" transform="translate(211.16666666666669,99.5)"><path id="SvgjsPath1115" d="M 0 0L 60.4863966389143 0L 60.4863966389143 31L 0 31Z" stroke="rgba(33,41,48,1)" stroke-width="2" fill-opacity="1" fill="#ffffff"></path><g id="SvgjsG1116"><text id="SvgjsText1117" font-family="微软雅黑" text-anchor="middle" font-size="13px" width="41px" fill="#323232" font-weight="700" align="middle" lineHeight="125%" anchor="middle" family="微软雅黑" size="13px" weight="700" font-style="" opacity="1" y="4.875" transform="rotate(0)"><tspan id="SvgjsTspan1118" dy="16.25" x="30.5"><tspan id="SvgjsTspan1119" style="">HTML</tspan></tspan></text></g></g><g id="SvgjsG1120" transform="translate(449.00288187252545,99.5)"><path id="SvgjsPath1121" d="M 0 0L 69.16378479414135 0L 69.16378479414135 31L 0 31Z" stroke="rgba(33,41,48,1)" stroke-width="2" fill-opacity="1" fill="#ffffff"></path><g id="SvgjsG1122"><text id="SvgjsText1123" font-family="微软雅黑" text-anchor="middle" font-size="13px" width="50px" fill="#323232" font-weight="700" align="middle" lineHeight="125%" anchor="middle" family="微软雅黑" size="13px" weight="700" font-style="" opacity="1" y="4.875" transform="rotate(0)"><tspan id="SvgjsTspan1124" dy="16.25" x="35"><tspan id="SvgjsTspan1125" style="">Assets</tspan></tspan></text></g></g><g id="SvgjsG1126" transform="translate(25,140.2302427982811)"><path id="SvgjsPath1127" d="M 0 10.5L 691 10.5" stroke-dasharray="10,6" stroke="rgba(136,136,136,1)" stroke-width="1" fill="none"></path><path id="SvgjsPath1128" d="M 0 0L 691 0L 691 21L 0 21Z" stroke="none" fill="none"></path></g><g id="SvgjsG1129" transform="translate(538.5,89.8442164179105)"><path id="SvgjsPath1130" d="M 0 4Q 0 0 4 0L 160.9999999999999 0Q 164.9999999999999 0 164.9999999999999 4L 164.9999999999999 46.386026380370595Q 164.9999999999999 50.386026380370595 160.9999999999999 50.386026380370595L 4 50.386026380370595Q 0 50.386026380370595 0 46.386026380370595Z" stroke="none" fill-opacity="1" fill="#ffcc99"></path><g id="SvgjsG1131"><text id="SvgjsText1132" font-family="微软雅黑" text-anchor="start" font-size="13px" width="145px" fill="#323232" font-weight="700" align="middle" lineHeight="125%" anchor="start" family="微软雅黑" size="13px" weight="700" font-style="" opacity="1" y="14.568013190185297" transform="rotate(0)"><tspan id="SvgjsTspan1133" dy="16.25" x="10"><tspan id="SvgjsTspan1134" style="">API</tspan></tspan></text></g></g><g id="SvgjsG1135" transform="translate(644.759157664224,103)"><path id="SvgjsPath1136" d="M 0 0L 48.27548543689329 0L 48.27548543689329 24.5L 0 24.5Z" stroke="rgba(33,41,48,1)" stroke-width="2" fill-opacity="1" fill="#ffffff"></path><g id="SvgjsG1137"><text id="SvgjsText1138" font-family="微软雅黑" text-anchor="middle" font-size="13px" width="29px" fill="#323232" font-weight="700" align="middle" lineHeight="125%" anchor="middle" family="微软雅黑" size="13px" weight="700" font-style="" opacity="1" y="1.625" transform="rotate(0)"><tspan id="SvgjsTspan1139" dy="16.25" x="24.5"><tspan id="SvgjsTspan1140" style="">GET</tspan></tspan></text></g></g><g id="SvgjsG1141" transform="translate(576.9836722273307,103)"><path id="SvgjsPath1142" d="M 0 0L 55.05097087378658 0L 55.05097087378658 24.5L 0 24.5Z" stroke="rgba(33,41,48,1)" stroke-width="2" fill-opacity="1" fill="#ffffff"></path><g id="SvgjsG1143"><text id="SvgjsText1144" font-family="微软雅黑" text-anchor="middle" font-size="13px" width="36px" fill="#323232" font-weight="700" align="middle" lineHeight="125%" anchor="middle" family="微软雅黑" size="13px" weight="700" font-style="" opacity="1" y="1.625" transform="rotate(0)"><tspan id="SvgjsTspan1145" dy="16.25" x="28"><tspan id="SvgjsTspan1146" style="">POST</tspan></tspan></text></g></g><g id="SvgjsG1147"><path id="SvgjsPath1148" d="M618.0804265218086 204.5L618.0804265218086 220.89364640883974L295.0192307692308 220.89364640883974L295.0192307692308 233.68729281767946" stroke="#262626" stroke-width="2" fill="none" marker-end="url(#SvgjsMarker1149)"></path></g><g id="SvgjsG1151" transform="translate(25,296.2872928176795)"><path id="SvgjsPath1152" d="M 0 0L 95 0L 95 40L 0 40Z" stroke="none" fill="none"></path><g id="SvgjsG1153"><text id="SvgjsText1154" font-family="微软雅黑" text-anchor="middle" font-size="13px" width="95px" fill="#323232" font-weight="700" align="middle" lineHeight="125%" anchor="middle" family="微软雅黑" size="13px" weight="700" font-style="" opacity="1" y="9.375" transform="rotate(0)"><tspan id="SvgjsTspan1155" dy="16.25" x="47.5"><tspan id="SvgjsTspan1156" style="">Databases</tspan></tspan></text></g></g><g id="SvgjsG1157" transform="matrix(-1.8369701987210297e-16,-1,1,-1.8369701987210297e-16,538.0091552734375,336.28729248046875)"><path id="SvgjsPath1158" d="M 12.45 0L 74 0C 85.45454545454545 0 85.45454545454545 54 74 54L 12.45 54C -4.15 54 -4.15 0 12.45 0ZM 74 0C 62.75 0 62.75 54 74 54C 62.75 54 62.75 0 74 0" stroke="rgba(33,41,48,1)" stroke-width="2" fill-opacity="1" fill="#ffffff"></path><g id="SvgjsG1159"><text id="SvgjsText1160" font-family="微软雅黑" text-anchor="middle" font-size="13px" width="67px" fill="#323232" font-weight="700" align="middle" lineHeight="125%" anchor="middle" family="微软雅黑" size="13px" weight="700" font-style="" opacity="1" y="16.375" transform="rotate(0)"><tspan id="SvgjsTspan1161" dy="16.25" x="33.5"><tspan id="SvgjsTspan1162" style="">UniRef30</tspan></tspan></text></g></g><g id="SvgjsG1163" transform="matrix(-1.8369701987210297e-16,-1,1,-1.8369701987210297e-16,617.0091552734375,336.28729248046875)"><path id="SvgjsPath1164" d="M 12.45 0L 74 0C 85.45454545454545 0 85.45454545454545 54 74 54L 12.45 54C -4.15 54 -4.15 0 12.45 0ZM 74 0C 62.75 0 62.75 54 74 54C 62.75 54 62.75 0 74 0" stroke="rgba(33,41,48,1)" stroke-width="2" fill-opacity="1" fill="#cfcfcf"></path><g id="SvgjsG1165"><text id="SvgjsText1166" font-family="微软雅黑" text-anchor="middle" font-size="13px" width="67px" fill="#323232" font-weight="700" align="middle" lineHeight="125%" anchor="middle" family="微软雅黑" size="13px" weight="700" font-style="" opacity="1" y="16.375" transform="rotate(0)"><tspan id="SvgjsTspan1167" dy="16.25" x="33.5"><tspan id="SvgjsTspan1168" style="">UniRef90</tspan></tspan></text></g></g><g id="SvgjsG1169" transform="translate(199.48032979271574,251.78729281767949)"><path id="SvgjsPath1170" d="M 0 0L 112 0L 112 37L 0 37Z" stroke="rgba(33,41,48,1)" stroke-width="2" fill-opacity="1" fill="#ffffff"></path><g id="SvgjsG1171"><text id="SvgjsText1172" font-family="微软雅黑" text-anchor="middle" font-size="13px" width="92px" fill="#323232" font-weight="700" align="middle" lineHeight="125%" anchor="middle" family="微软雅黑" size="13px" weight="700" font-style="" opacity="1" y="7.875" transform="rotate(0)"><tspan id="SvgjsTspan1173" dy="16.25" x="56"><tspan id="SvgjsTspan1174" style="">BLAST+</tspan></tspan></text></g></g><g id="SvgjsG1175" transform="translate(199.48032979271574,300.7872928176795)"><path id="SvgjsPath1176" d="M 0 0L 112 0L 112 37L 0 37Z" stroke="rgba(33,41,48,1)" stroke-width="2" fill-opacity="1" fill="#ffffff"></path><g id="SvgjsG1177"><text id="SvgjsText1178" font-family="微软雅黑" text-anchor="middle" font-size="13px" width="92px" fill="#323232" font-weight="700" align="middle" lineHeight="125%" anchor="middle" family="微软雅黑" size="13px" weight="700" font-style="" opacity="1" y="7.875" transform="rotate(0)"><tspan id="SvgjsTspan1179" dy="16.25" x="56"><tspan id="SvgjsTspan1180" style="">PSSM</tspan></tspan></text></g></g><g id="SvgjsG1181" transform="translate(323.7993858594118,300.7872928176795)"><path id="SvgjsPath1182" d="M 0 0L 112 0L 112 37L 0 37Z" stroke="rgba(33,41,48,1)" stroke-width="2" fill-opacity="1" fill="#ffffff"></path><g id="SvgjsG1183"><text id="SvgjsText1184" font-family="微软雅黑" text-anchor="middle" font-size="13px" width="92px" fill="#323232" font-weight="700" align="middle" lineHeight="125%" anchor="middle" family="微软雅黑" size="13px" weight="700" font-style="" opacity="1" y="7.875" transform="rotate(0)"><tspan id="SvgjsTspan1185" dy="16.25" x="56"><tspan id="SvgjsTspan1186" style="">GREMLIN</tspan></tspan></text></g></g><g id="SvgjsG1187"><path id="SvgjsPath1188" d="M465.03846153846155 294.7872928176795L481.88461538461536 294.7872928176795L481.88461538461536 294.7872928176795L498.7807692307691 294.7872928176795" stroke="#323232" stroke-width="1.5" fill="none" marker-end="url(#SvgjsMarker1189)"></path></g><g id="SvgjsG1191"><path id="SvgjsPath1192" d="M295.0192307692308 354.0372928176795L295.0192307692308 365.43093922651923L415.25 365.43093922651923L415.25 378.82458563535897" stroke="#323232" stroke-width="1.5" fill="none" marker-start="url(#SvgjsMarker1193)" marker-end="url(#SvgjsMarker1195)"></path></g><g id="SvgjsG1197" transform="translate(25,68.79329819472068)"><path id="SvgjsPath1198" d="M 0 10.5L 691 10.5" stroke-dasharray="10,6" stroke="rgba(136,136,136,1)" stroke-width="1" fill="none"></path><path id="SvgjsPath1199" d="M 0 0L 691 0L 691 21L 0 21Z" stroke="none" fill="none"></path></g><g id="SvgjsG1200" transform="translate(127,25)"><path id="SvgjsPath1201" d="M 0 4Q 0 0 4 0L 572.5 0Q 576.5 0 576.5 4L 576.5 38Q 576.5 42 572.5 42L 4 42Q 0 42 0 38Z" stroke="none" fill-opacity="1" fill="#f5b9b7"></path><g id="SvgjsG1202"><text id="SvgjsText1203" font-family="微软雅黑" text-anchor="start" font-size="13px" width="557px" fill="#323232" font-weight="700" align="middle" lineHeight="125%" anchor="start" family="微软雅黑" size="13px" weight="700" font-style="" opacity="1" y="10.375" transform="rotate(0)"><tspan id="SvgjsTspan1204" dy="16.25" x="10"><tspan id="SvgjsTspan1205" style="">Nginx</tspan></tspan></text></g></g><g id="SvgjsG1206" transform="translate(25,26)"><path id="SvgjsPath1207" d="M 0 0L 95 0L 95 40L 0 40Z" stroke="none" fill="none"></path><g id="SvgjsG1208"><text id="SvgjsText1209" font-family="微软雅黑" text-anchor="middle" font-size="13px" width="95px" fill="#323232" font-weight="700" align="middle" lineHeight="125%" anchor="middle" family="微软雅黑" size="13px" weight="700" font-style="" opacity="1" y="9.375" transform="rotate(0)"><tspan id="SvgjsTspan1210" dy="16.25" x="47.5"><tspan id="SvgjsTspan1211" style="">Server</tspan></tspan></text></g></g><g id="SvgjsG1212"><path id="SvgjsPath1213" d="M533.2231730569281 59.25L533.2231730569281 74.04710820895525L329.25000000000006 74.04710820895525L329.25000000000006 87.8942164179105" stroke="#323232" stroke-width="1.5" fill="none" marker-end="url(#SvgjsMarker1214)"></path></g><g id="SvgjsG1216"><path id="SvgjsPath1217" d="M266.75548553902377 188L280.0297156521276 188L280.0297156521276 188L291.3539457652314 188" stroke="#323232" stroke-width="1.5" fill="none" marker-end="url(#SvgjsMarker1218)"></path></g><g id="SvgjsG1220"><path id="SvgjsPath1221" d="M401.97576988689616 188L415.25 188L415.25 188L426.5742301131038 188" stroke="#323232" stroke-width="1.5" fill="none" marker-end="url(#SvgjsMarker1222)"></path></g><g id="SvgjsG1224"><path id="SvgjsPath1225" d="M537.1960542347687 188L550.4702843478724 188L550.4702843478724 188L561.7945144609762 188" stroke="#323232" stroke-width="1.5" fill="none" marker-end="url(#SvgjsMarker1226)"></path></g><g id="SvgjsG1228" transform="translate(455.99049460748677,33.75)"><path id="SvgjsPath1229" d="M 0 0L 154.46535689888276 0L 154.46535689888276 24.5L 0 24.5Z" stroke="rgba(33,41,48,1)" stroke-width="2" fill-opacity="1" fill="#ffffff"></path><g id="SvgjsG1230"><text id="SvgjsText1231" font-family="微软雅黑" text-anchor="middle" font-size="13px" width="135px" fill="#323232" font-weight="700" align="middle" lineHeight="125%" anchor="middle" family="微软雅黑" size="13px" weight="700" font-style="" opacity="1" y="1.625" transform="rotate(0)"><tspan id="SvgjsTspan1232" dy="16.25" x="77.5"><tspan id="SvgjsTspan1233" style="">Reversed Proxy</tspan></tspan></text></g></g><g id="SvgjsG1234" transform="translate(220.04414849363042,33.75)"><path id="SvgjsPath1235" d="M 0 0L 161.46460905031324 0L 161.46460905031324 24.5L 0 24.5Z" stroke="rgba(33,41,48,1)" stroke-width="2" fill-opacity="1" fill="#ffffff"></path><g id="SvgjsG1236"><text id="SvgjsText1237" font-family="微软雅黑" text-anchor="middle" font-size="13px" width="142px" fill="#323232" font-weight="700" align="middle" lineHeight="125%" anchor="middle" family="微软雅黑" size="13px" weight="700" font-style="" opacity="1" y="1.625" transform="rotate(0)"><tspan id="SvgjsTspan1238" dy="16.25" x="81"><tspan id="SvgjsTspan1239" style="">Basic Authentication</tspan></tspan></text></g></g><g id="SvgjsG1240"><path id="SvgjsPath1241" d="M329.25000000000006 140.2302427982811L329.25000000000006 156.36512139914055L212.41957347819135 156.36512139914055L212.41957347819135 169.55" stroke="#323232" stroke-width="1.5" fill="none" marker-end="url(#SvgjsMarker1242)"></path></g><g id="SvgjsG1244"><path id="SvgjsPath1245" d="M621 140.2302427982811L621 156.36512139914055L212.41957347819135 156.36512139914055L212.41957347819135 169.55" stroke="#323232" stroke-width="1.5" fill="none" marker-end="url(#SvgjsMarker1246)"></path></g><g id="SvgjsG1248"><path id="SvgjsPath1249" d="M602.1153846153845 352.0372928176795L602.1153846153845 365.43093922651923L415.25 365.43093922651923L415.25 378.82458563535897" stroke="#323232" stroke-width="1.5" fill="none" marker-start="url(#SvgjsMarker1250)" marker-end="url(#SvgjsMarker1252)"></path></g><g id="SvgjsG1254"><path id="SvgjsPath1255" d="M382.50875754394366 46L418.74962607571524 46L418.74962607571524 46L453.0404946074867 46" stroke="#323232" stroke-width="1.5" fill="none" marker-end="url(#SvgjsMarker1256)"></path></g><g id="SvgjsG1258"><path id="SvgjsPath1259" d="M533.2231730569281 59.25L533.2231730569281 74.04710820895525L621 74.04710820895525L621 87.8942164179105" stroke="#323232" stroke-width="1.5" fill="none" marker-end="url(#SvgjsMarker1260)"></path></g></svg>