<svg id="Layer_1" data-name="Layer 1" xmlns="http://www.w3.org/2000/svg" viewBox="0 0 801.58 801.58"><defs><style>.cls-1{fill:#fefefe;}.cls-2{fill:#162333;}.cls-3{fill:#172534;}.cls-4{fill:#162332;}.cls-5{fill:#172535;}.cls-6{fill:#8aaac8;}.cls-7{fill:#152538;}.cls-8{fill:#88abca;}.cls-9{fill:#2e5a82;}.cls-10{fill:#5590c8;}.cls-11{fill:#1e2a37;}.cls-12{fill:#548ec2;}.cls-13{fill:#f5f7f7;}.cls-14{fill:#5393ca;}.cls-15{fill:#4d91ce;}</style></defs><circle class="cls-1" cx="400.79" cy="400.79" r="400.79"/><path class="cls-2" d="M225.72,542.86c0-2.29,0-4.59,0-6.88,2.32-1,1.6-3.07,1.6-4.77q0-81.83,0-163.63c0-1.73.61-3.77-1.58-4.83l0-4.72c2.41-2.38,2.4-4.77,0-7.17,0-.94,0-1.88,0-2.82,2.6-3.62,2-7.36.41-11.13,5.18-3.33,11.12-5,16.76-7.23,26.84-10.78,53.75-21.36,80.54-32.25,3.63-1.48,4.38-.35,5.34,2.76q11.61,37.4,23.48,74.72c.7,2.21,1.52,4.39,2.52,7.25,4.09-11,7-21.68,10-32.31.89-3.1-2.17-4.21-3.74-5.86-5.39-5.66-5.47-5.58-.18-11.51.88-1,1.83-2,2.66-3,2.48-3.08,7.64-5.66,7.18-8.94s-5.13-5.72-8-8.48c-6.14-5.86-12.23-11.78-18.53-17.47-6-5.46-9.9-11.59-7.38-20,24,22.56,48.46,22.46,73.09,0,1,7.16.2,13.13-5.82,18.62-8.84,8.07-17.35,16.55-26.47,24.32-3.13,2.68-2.95,4.16-.2,6.73,4,3.74,7.63,7.9,11.55,11.74,1.64,1.61,2.12,2.92-.05,4.27-8.37,5.21-8.65,11.93-4.89,20.4,3,6.75,4.56,14.14,7.76,21.38,2.09-6.62,4.2-13.24,6.28-19.86q9.75-30.93,19.47-61.85c.7-2.22.86-4.49,4.52-2.9,26.69,11.55,53.46,22.91,80.2,34.32l-.05,2.9c-16,7.72-32.37,14.75-48.18,22.95-8.33,4.32-12.49,10.17-12.49,19.63.05,71.94-.21,143.88-.06,215.81.05,23.12,19.23,44.22,42.2,47.66,2.86.43,5.06.41,4.32-3.49a6.7,6.7,0,0,1,0-2c.57-4.49-.51-6.65-5.8-7.89-16.14-3.79-27.47-17.78-27.58-35-.31-48.12.07-96.24.18-144.36,2,.51,2.09,2.44,2.87,3.82,9.72,17.12,23.55,29.1,43,33.68,11.78,2.78,23.85,1.17,35.78,1.24,13.44.07,26-3.38,36.71-11.88,10.09-8,17.78-17.84,20-31.06q.42-22.54.85-45.09a5.75,5.75,0,0,0-.8-3.8l15.17-21.36,1.52.33c0,4.38,0,8.76,0,13.15-.09,15.16-.64,30.33-.2,45.48.88,30.39-13.59,52.11-38.59,67-27.1,16.12-55.1,17.45-82.78.55-1.85-1.13-3.12-1.48-4.62.43-6.62,8.39-8.67,6.39,1.63,12.31,31.49,18.1,62.61,15.85,93-3.23,1.49-.94,2.7-2.44,5.07-2.66v81.57c7.29-6.75,12.31-14,17.78-20.91,22.39-28.13,37.64-59.83,47-94.43,4.16-15.44,6-31.32,8.18-47.12,9,0,18,.17,27-.08,3.45-.09,4.2,1,3.82,4.24-5.17,44.9-18.24,87.17-41.52,126.1-27.15,45.38-63.76,81-110.84,105.18-43.55,22.35-89.91,33.54-139.13,31.89A288.07,288.07,0,0,1,288.27,669c-5.2-2.29-6.86-5-6.85-10.76.12-56.3.72-112.6.66-169.27q3.35,5.81,6.67,11.63c4,7.07,8.36,14,12,21.28,2.63,5.22,6.05,7.59,12.38,5.53l-43-85.66-.91.14V659.38a258.2,258.2,0,0,1-42.39-27.54c-2.13-1.73-1.37-3.86-1.18-6,2.88-3,2.65-6,0-9,0-3,0-5.93,0-8.89,2.72-3,2.68-6.07,0-9.11,0-2.29,0-4.59,0-6.88,2.1-.8,1.63-2.65,1.63-4.22q0-20.34,0-40.66C227.33,545.52,227.85,543.66,225.72,542.86Zm150.54-78c5.42-5.21,8-12.24,11.77-18.52,19.17-32.31,35.31-66.27,53.48-99.13,2-3.67,4.12-7.3,6.76-12-6.09,2.31-10.91,4.53-16,5.91-3.78,1-5.76,3.09-7.34,6.52-13.81,29.87-26.49,60.21-38.66,90.77-3.48,8.76-7.49,17.33-10,26.48-.86.05-.93.62-.78,1.27,0,.11.36.26.37.25C376.33,466,376.75,465.51,376.26,464.86Zm-5.87-.52c-2.38-6.15-4.85-12.27-7.14-18.46-12.56-33.88-27.34-66.79-43.16-99.26-.69-1.43-1-3.51-2.77-3.95-6.27-1.53-11.93-4.75-18.91-7C322.77,379,343.88,423.06,370.39,464.34ZM516.22,599.16c0,4.16,0,8.32,0,12.48,0,13.15-.07,26.3,0,39.45,0,1.26-.91,3.23,1.27,3.68,3,.62,8.85-4.3,8.85-7.31,0-33.29-.06-66.58.11-99.87,0-4.31-2.08-4.32-5.22-4.38-3.35-.07-5.13.42-5.08,4.51C516.36,564.87,516.23,582,516.22,599.16ZM381.13,502.68a8.31,8.31,0,0,0-8-7.91c-4.5-.07-7.75,3.19-7.82,7.84s3,8.13,7.42,8.19S381.13,506.94,381.13,502.68ZM381,549a8.47,8.47,0,0,0-7.76-8.21,8,8,0,0,0-8,7.82,7.53,7.53,0,0,0,7.89,7.74A7.66,7.66,0,0,0,381,549Z"/><path class="cls-3" d="M619.16,268.93c.5-7.43,1.54-14.87-.91-22.22-3.74-11.19-10.76-19.32-21.82-23.73-1.88-.75-3.36-1.42-4.27-3.61-11.34-27-33.31-39.27-61-43.45-1.8-.27-3.63-.39-5.44-.58a68.83,68.83,0,0,0-6.13-4.16c-21.23-11.32-42.79-21.92-66.12-28.36,2.39-14.1-4.64-23.5-15.73-31a184.85,184.85,0,0,1,49.29,11.07c59.37,21.83,109,57.13,145.67,109,30,42.51,46.93,90.44,54.24,141.85.23,1.61,1.21,3.91-2.06,3.79-9.62-.34-19.26.63-28.87-.48-3.11-29-11.74-56.44-23-83.14C629.34,285.14,625.39,276.37,619.16,268.93Z"/><path class="cls-4" d="M319.56,162.47c15.38,16.68,34.32,20.1,54.24,20.07,19.72,0,38.47-3.51,53.38-19.48.89,8.73.41,16.35-2.12,23.82-.41,1.23-1.75,2.38.75,3.44,5.74,2.43,6.53,7.72,6.05,13-.71,7.71-4.34,14.15-11.05,18.07-3.77,2.21-4.71,4.71-4.58,8.77.55,17.9-6.32,32.14-21.79,41.64-12.58,7.73-25.86,8.73-39,1.72-15.72-8.39-24.55-21.67-25.14-39.73-.19-5.71-1-10-6.44-13.71a21.72,21.72,0,0,1-9.75-21.17c.32-2.91,1.09-6,3.48-7.47,3.35-2,3.4-4.19,2.71-7.55C319,177.4,319.55,170.74,319.56,162.47Z"/><path class="cls-5" d="M148.94,377.32c-9.32.15-18.63.27-27.95.46-4.91.09-2.56-3.41-2.33-5.24a309.54,309.54,0,0,1,16.7-68.2c21.6-59,57-107.54,108.58-143.88A306.93,306.93,0,0,1,286,135.68c1.61-.79,3.1-2,5.61-1.72-2.71,8.12,2.25,13.82,6.2,19.91,1.68,2.59,4.3,4.69,4.57,8.08a119.49,119.49,0,0,0-24,11.89C203,221.12,161.06,289.73,148.94,377.32Z"/><path class="cls-5" d="M502.3,334.72l.05-2.9c.93,0,2.25.45,2.32-1,.18-4,.23-8,.22-12,0-1.82-1.68-1.72-2.88-2.17-15.46-5.72-26.5-16.19-33.41-31.1-.82-1.75-1.17-3.43-4-3.58-10.69-.57-17.77-6.42-19.92-16.73-1.93-9.25-.32-17.91,6.3-25.12,2.28-2.49,5.06-4.93,8.45-4.86,5,.09,6.67-2.26,8.4-6.68,9.38-23.86,33.13-39.05,59.38-38.57,24.33.44,47.92,17.57,56.25,41a4.93,4.93,0,0,0,4.42,3.77c10.8,1.81,18.79,12.66,18.29,24.49s-8.82,21.52-19.89,22.59a3.92,3.92,0,0,0-3.88,2.9c-6,15.38-17.14,25.48-32.57,30.88-2.59.91-3.94,2-3.69,4.88.28,3.14.2,6.31.28,9.47,0,1.68.07,3.35.1,5,1,5.28-1.34,8-6.58,8.37a5.24,5.24,0,0,0-1.91.54c-10.94,5.68-21.23,1.32-31.65-1.88-2.52-.77-1.46-2.52-1.75-4S505.79,333.92,502.3,334.72ZM456.05,260c-.09,3.93-.2,7.85,3.43,10.6,1.26,1,2.58,1.66,4.12,1.05s1.67-2,1.57-3.35c-.2-2.76.73-5.61-.57-8.3.09-3.12.33-6.25.22-9.36-.07-1.93,1.44-4.86-2.75-4.81-3.47,0-5.86.91-6,4.8C456,253.78,456.06,256.91,456.05,260ZM594,259.6c0-3.3.25-6.62-.05-9.9-.36-3.8-3.32-3.86-6.32-3.83-3.45,0-2.31,2.56-2.36,4.26-.11,3.31,0,6.62.06,9.92,0,2.65-.07,5.3,0,7.94,0,1.4-.56,3.21,1.4,3.81a4.66,4.66,0,0,0,4.92-1.53C594.61,267.17,594.58,263.47,594,259.6Zm-20.41-7.69c1-1.72,1.37-3.25-1.08-4a2.08,2.08,0,0,0-.26-1c.86-4.36-.44-8.49-1.74-12.47-6-18.31-25.13-31.58-45.22-31.55-20.51,0-39.65,13.2-45.63,31.81-2,6.24-4.27,12.62-2.62,19.44a.62.62,0,0,0-.7.53c-2.37,3.69-.54,7.44.11,11.05,3.23,18,12.9,31.28,30.25,37.78,13.77,5.16,27.68,4.13,41.12-1.91,20.49-9.21,27.11-28.21,25.82-47.61C573.57,253.3,573.55,252.6,573.54,251.91Z"/><path class="cls-6" d="M148.94,377.32c12.12-87.59,54.09-156.2,129.5-203.48a119.49,119.49,0,0,1,24-11.89c3.14,1,4.28,3.23,4.07,6.43a25.93,25.93,0,0,0,0,6.47c1.56,8.24-2.13,12.75-9.26,16.7a227.49,227.49,0,0,0-58.58,46.78c-31.81,35.13-53,75.75-62,122.47a106.82,106.82,0,0,0-1.37,11.86c-.25,3.19-1.43,4.65-4.94,4.55C163.21,377,156.07,377.26,148.94,377.32Z"/><path class="cls-2" d="M212,576.1v43.74c-4.22-4-7.69-6.92-10.82-10.2-40.39-42.22-66-92.12-77.88-149.26q-3.14-15.17-5.18-30.5c-.42-3.09.26-4.09,3.51-4,9.15.29,18.3.25,27.45.34C155.22,482.41,174.07,533.25,212,576.1Z"/><path class="cls-5" d="M371.69,95.08c13.7.29,24.83,3.42,34.63,10.29,8.72,6.12,17.36,12.41,25.51,19.25,12.63,10.6,9.05,15.61,1.36,27.81-.82,1.3-1.68,1-2.89.47-25.44-11.6-52.18-12.38-79.32-9.34a109.2,109.2,0,0,0-34.07,9.26c-2.07,1-3.22.9-4.27-1.23a35.23,35.23,0,0,0-2.82-4.11c-5.63-8.12-5.21-14.15,2.32-20.59,8.86-7.56,17.85-15,27.29-21.83C349.45,97.85,361.26,95.59,371.69,95.08Zm7.12,33.26c0,.91-1,2.4.76,2.78,1.41.3,3.67.82,4.09-.65.86-3,3.19-2.32,5.09-2.84,2.72-.74,5.49-1.32,8.16-2.23,1.59-.54,4.28-.65,3.83-3-.38-2-2.77-1.28-4.35-1.27-3.65,0-7.33.52-11,.28C380.29,121,377.92,123,378.81,128.34Zm-24-7.33a13.92,13.92,0,0,0-2.38,0c-2.11.42-5.56-1.39-6.05,1.51s3.35,2.33,5.24,3.35a7.23,7.23,0,0,0,1,.22c3.83,1.49,8.73.36,11.39,4.86.59,1,2.13.66,3.22,0a2.23,2.23,0,0,0,1-2.59c-.76-3.77-1-7.9-6.83-7C359.15,121.72,356.76,121.14,354.82,121Zm22.57,2.69c-.23-2.53-1.11-4.63-4.06-4.64s-4,2-4,4.62c0,2.45,1.15,4.27,3.73,4.39C375.87,128.21,377.14,126.39,377.39,123.7Zm-.05,9.48c-.41-2.38-1.77-4.11-4.17-4a3.75,3.75,0,0,0-3.61,4c.07,2.42,1.47,4,4.07,3.87C375.91,136.91,377,135.39,377.34,133.18Z"/><path class="cls-7" d="M487.15,354.88c6-4,11.72-8.27,19.74-4,12.12,6.48,24.73,5.76,36.91.15,7.48-3.43,13.57-1.51,19.6,2.86l-.12,86.89a4.27,4.27,0,0,0,.89,3.27c-6.74,6.62-14.09,12.75-20,20-5.68,6.93-11.51,11.63-20.94,9.78-2.36-.47-4.82.42-7.07-1.5-10.37-8.83-18.91-19.5-29-28.61.09-11.31.25-22.63.24-33.95C487.35,391.5,487.22,373.19,487.15,354.88ZM550.22,380c.06-.82,0-1.66.19-2.47.87-4.88-.81-6.47-6-6.27-12.1.46-24.22.14-36.33.15-8.09,0-8.09,0-7.48,8.46q-.13,27-.23,53.93c0,1.6-.63,3.42.76,4.76,6.85,6.55,13.64,13.16,20.65,19.53,3.08,2.8,6.71,2.36,9.29-.71a140.69,140.69,0,0,1,17.33-17.19,5.09,5.09,0,0,0,2-4.27Q550.27,407.91,550.22,380Z"/><path class="cls-8" d="M656.34,426c-2.2,15.8-4,31.68-8.18,47.12-9.32,34.6-24.57,66.3-47,94.43-5.47,6.88-10.49,14.16-17.78,20.91V545.81c7.65-7.11,13.11-15.89,18.17-24.83,12.71-22.43,22.27-46.07,26.11-71.76a111.2,111.2,0,0,0,1.65-19.35c-.07-2.93.87-4.14,4-4.05C641,426.06,648.68,426,656.34,426Z"/><path class="cls-8" d="M212,576.1c-37.89-42.85-56.74-93.69-62.92-149.86,7.31-.1,14.61-.11,21.91-.35,3.24-.11,3.17,1.83,3.45,4.12,3.46,28.38,10.86,55.61,24,81.13,1.75,3.39,3.14,7.16,5.6,10,8.23,9.41,8.12,20.72,8.11,32.08C212.1,560.82,212,568.46,212,576.1Z"/><path class="cls-9" d="M487.12,443.76c10.09,9.11,18.63,19.78,29,28.61,2.25,1.92,4.71,1,7.07,1.5,9.43,1.85,15.26-2.85,20.94-9.78,6-7.27,13.3-13.4,20-20l29-.24c-2.2,13.22-9.89,23-20,31.06-10.67,8.5-23.27,11.95-36.71,11.88-11.93-.07-24,1.54-35.78-1.24-19.43-4.58-33.26-16.56-43-33.68-.78-1.38-.9-3.31-2.87-3.82a6.64,6.64,0,0,1,.11-4Z"/><path class="cls-10" d="M487.12,443.76l-32.14.3c-.12-8.95-.33-17.91-.37-26.86-.05-13.79.06-27.58,0-41.37,0-2.82.81-4.56,3.41-5.92,9.69-5.08,19.07-10.74,29.17-15,.07,18.31.2,36.62.21,54.93C487.37,421.13,487.21,432.45,487.12,443.76Z"/><path class="cls-6" d="M619.16,268.93c6.23,7.44,10.18,16.21,13.88,25,11.26,26.7,19.89,54.17,23,83.14l-21.41.64c-2.36.07-4-.24-4.4-3.31a209.3,209.3,0,0,0-24.86-78.25c-1.8-3.22-2.11-5.35,1-7.93C612.56,283.13,615.5,275.76,619.16,268.93Z"/><path class="cls-10" d="M593.19,443.83l-29,.24a4.27,4.27,0,0,1-.89-3.27l.12-86.89c10.63,4.77,20.48,11,30.79,16.35,2.23,1.16,1.75,2.25.48,3.82-2.94,3.62-5.61,7.44-8.64,11-2,2.36-3.27,4.14.69,5.64,2.46.94,3.22,4.55,6.52,4.25a5.75,5.75,0,0,1,.8,3.8Q593.61,421.29,593.19,443.83Zm-6.2-25c4.5-.28,6-3.05,3.33-7.17a18.64,18.64,0,0,1-3-12.17c.1-1.32,0-2.65,0-4,.12-3.12-2.53-2.74-4.21-3-2.5-.4-1.71,1.85-1.74,3.09-.09,4.79,0,9.58,0,14.37-3.52,1.69-6,4.4-3.6,8.1S583.62,421.84,587,418.82Z"/><path class="cls-11" d="M75.45,394.23H94.81c37.77,0,75.53.1,113.3-.06,4.06,0,5,1.08,4.81,5-.49,10.7-.32,10.71-11.11,10.72q-49.65.06-99.32.16a11.8,11.8,0,0,1-7.4-2.2C89.05,403.46,82.85,399.32,75.45,394.23Z"/><path class="cls-8" d="M453.5,142.82c23.33,6.44,44.89,17,66.12,28.36a68.83,68.83,0,0,1,6.13,4.16c-9.7,1.28-19.63,2-28.44,6.57-5.71,3-10.19,2.14-15.59-.72a183.67,183.67,0,0,0-36.17-14.13c-2.68-.76-3.91-1.31-1.9-4.17A75.68,75.68,0,0,0,453.5,142.82Z"/><path class="cls-2" d="M320,157.68A206.89,206.89,0,0,1,427,157.34C404.2,174.09,347.46,174.2,320,157.68Z"/><path class="cls-5" d="M721.27,394.55l2-.05,1.44,3.26c-5.08,3.7-10.19,7.37-15.24,11.11-2,1.47-4.07,1-6.19.72-1.34-2.62-2.67-2.6-4,0l-36,0q-4-4-8,0h-4c-3.34-2.69-6.67-2.71-10,0h-11c-1.65-3.42-4.74-1-7.06-1.73q0-5,0-10l2.94-3.4c20.06-.43,40.12-.54,60.18.12a2.35,2.35,0,0,0,2.45,1.26l30.12,0A2.12,2.12,0,0,0,721.27,394.55Z"/><path class="cls-4" d="M225.76,362.75c2.19,1.06,1.58,3.1,1.58,4.83q0,81.81,0,163.63c0,1.7.72,3.78-1.6,4.77-.07-17.14-.18-34.28-.19-51.41q-.06-57.18,0-114.36C225.51,367.72,225.67,365.23,225.76,362.75Z"/><path class="cls-10" d="M546.57,335c0-1.68-.07-3.35-.1-5,12.58-1.2,23.54,2.84,33.26,10.54,2.71,2.14,6.77,5.34,4.9,8.27-1.71,2.68-5.38-1.18-8-2.46C567,341.6,557.65,336,546.57,335Z"/><path class="cls-4" d="M225.72,542.86c2.13.8,1.61,2.66,1.62,4.23q0,20.32,0,40.66c0,1.57.47,3.42-1.63,4.22Q225.71,567.42,225.72,542.86Z"/><path class="cls-4" d="M721.27,394.55a2.12,2.12,0,0,1-2.35,1.38l-30.12,0a2.35,2.35,0,0,1-2.45-1.26C698,394.23,709.63,394.13,721.27,394.55Z"/><path class="cls-4" d="M641.28,409.64c3.33-2.72,6.66-2.7,10,0Z"/><path class="cls-4" d="M225.66,616.85c2.64,3,2.87,6,0,9Z"/><path class="cls-4" d="M655.28,409.64q4-4,8,0Z"/><path class="cls-4" d="M623.22,407.92c2.32.71,5.41-1.69,7.06,1.73C628,408.93,624.65,412.24,623.22,407.92Z"/><path class="cls-4" d="M724.7,397.76l-1.44-3.26,5.13-.25-.2.26.27.2A8.45,8.45,0,0,1,724.7,397.76Z"/><path class="cls-4" d="M226.24,336.91c1.57,3.77,2.19,7.51-.41,11.13C225.63,344.32,225.13,340.59,226.24,336.91Z"/><path class="cls-4" d="M225.7,598.85c2.65,3,2.69,6.08,0,9.11Z"/><path class="cls-4" d="M699.27,409.59c1.33-2.6,2.66-2.62,4,0Z"/><path class="cls-4" d="M225.81,350.86c2.38,2.4,2.39,4.79,0,7.17C225.8,355.64,225.8,353.25,225.81,350.86Z"/><path class="cls-4" d="M626.17,394.53l-2.94,3.4C622.7,395.5,622.78,393.59,626.17,394.53Z"/><path class="cls-12" d="M728.46,394.71l-.27-.2.2-.26.63.13Z"/><path class="cls-13" d="M376.35,464.93c2.47-9.15,6.48-17.72,10-26.48,12.17-30.56,24.85-60.9,38.66-90.77,1.58-3.43,3.56-5.48,7.34-6.52,5.05-1.38,9.87-3.6,16-5.91-2.64,4.66-4.73,8.29-6.76,12C423.34,380.07,407.2,414,388,446.34c-3.73,6.28-6.35,13.31-11.77,18.52Z"/><path class="cls-13" d="M370.39,464.34c-26.51-41.28-47.62-85.35-72-128.65,7,2.23,12.64,5.45,18.91,7,1.79.44,2.08,2.52,2.77,3.95,15.82,32.47,30.6,65.38,43.16,99.26C365.54,452.07,368,458.19,370.39,464.34Z"/><path class="cls-8" d="M516.23,599.16c0-17.15.13-34.29-.09-51.44,0-4.09,1.73-4.58,5.08-4.51,3.14.06,5.24.07,5.22,4.38-.17,33.29-.09,66.58-.11,99.87,0,3-5.88,7.93-8.85,7.31-2.18-.45-1.26-2.42-1.27-3.68-.06-13.15,0-26.3,0-39.45C516.23,607.48,516.22,603.32,516.23,599.16Z"/><path class="cls-13" d="M381.13,502.68c0,4.26-4.08,8.18-8.44,8.12s-7.49-3.44-7.42-8.19,3.32-7.91,7.82-7.84A8.31,8.31,0,0,1,381.13,502.68Z"/><path class="cls-13" d="M381,549a7.66,7.66,0,0,1-7.85,7.35,7.53,7.53,0,0,1-7.89-7.74,8,8,0,0,1,8-7.82A8.47,8.47,0,0,1,381,549Z"/><path class="cls-13" d="M376.26,464.86c.49.65.07,1.12-.32,1.59,0,0-.34-.14-.37-.25-.15-.65-.08-1.22.78-1.27Z"/><path class="cls-14" d="M476.29,254.68a.62.62,0,0,1,.7-.53,3.37,3.37,0,0,0,1.17-2.6c4.13-27.55,32.32-45.88,59.1-38.45a3.6,3.6,0,0,1-3.74.79c-12.43-2.79-22.44,4-33.08,8.27-.75.3-.84.93-.65,1.63.76,2.84-1.6,3.77-3.22,5-2.66,2-5.49,3.73-8.25,5.57-2.21,1.49-3.12,2.87.34,3.83,2.69.74,4.92,1.91,5.6,5,.48,2.2,1.59,1.37,2.89.62a21.34,21.34,0,0,1,5.38-2.49c3.36-.84,6.72-1,8.63,2.85a29.71,29.71,0,0,0-4.29-1.19A9.53,9.53,0,0,0,496.32,250a10.36,10.36,0,0,0,6.52,12c4.45,1.52,9-.83,11.37-5.56,1.9-3.81.4-7.09-1.12-10.44,2.37,0,3.62,1.44,3.13,3.49-1.6,6.74,3,9.35,7.57,12.14s7.8,1.1,8.63-4.25c.49-3.15-.7-7.12,3.11-9.22-.12,1.31-.35,2.63-.36,3.95,0,5.29,3.35,9.68,8,10.49,3.94.67,8.62-2.47,10.44-6.92,1.23-3,.29-5.85-.47-8.72,3.46,1,2.7,4,3.13,6.51.53,3.09,4.77,5.13,6.58,2.78s4.16-4.59,5.88-7c1.22-1.74-.89-4.35-1.06-6.61-.32-4.36-5.3-7-4.15-11.87,1.79,1.33,2.46,3.45,3.68,5.18,2.36,3.34,1.84,8,5,11a2.08,2.08,0,0,1,.26,1c-.13,1.47-.82,3.1,1.08,4,0,.69,0,1.39.05,2.08-2.25,2.17-1.77,5.16-2.21,7.81-1.5,9.09-4.82,17.52-11.5,23.77-25.76,24.12-62.84,16.58-77.7-12.63C479.21,267.11,477.67,261,476.29,254.68Z"/><path class="cls-13" d="M572.2,246.92c-3.12-3-2.6-7.65-5-11-1.22-1.73-1.89-3.85-3.68-5.18l-.06,0a6.66,6.66,0,0,0-3.13-4l-.87-.89a36.24,36.24,0,0,0-15.07-10.1l0,.09-1.12-.75-1.84-.61-2.12-.73a2.2,2.2,0,0,0-2.11-.67c-26.78-7.43-55,10.9-59.1,38.45a3.37,3.37,0,0,1-1.17,2.6c-1.65-6.82.61-13.2,2.62-19.44,6-18.61,25.12-31.78,45.63-31.81,20.09,0,39.26,13.24,45.22,31.55C571.76,238.43,573.06,242.56,572.2,246.92Z"/><path class="cls-9" d="M476.29,254.68c1.38,6.27,2.92,12.43,5.89,18.26,14.86,29.21,51.94,36.75,77.7,12.63,6.68-6.25,10-14.68,11.5-23.77.44-2.65,0-5.64,2.21-7.81,1.29,19.4-5.33,38.4-25.82,47.61-13.44,6-27.35,7.07-41.12,1.91-17.35-6.5-27-19.76-30.25-37.78C475.75,262.12,473.92,258.37,476.29,254.68Z"/><path class="cls-13" d="M585.28,260.05c0-3.3-.17-6.61-.06-9.92,0-1.7-1.09-4.22,2.36-4.26,3,0,6,0,6.32,3.83.3,3.28.05,6.6.05,9.9C591.11,260.57,588.19,260.16,585.28,260.05Z"/><path class="cls-13" d="M456.05,260c0-3.12,0-6.25.05-9.37.11-3.89,2.5-4.75,6-4.8,4.19-.05,2.68,2.88,2.75,4.81.11,3.11-.13,6.24-.22,9.36A30.61,30.61,0,0,1,456.05,260Z"/><path class="cls-9" d="M456.05,260a30.61,30.61,0,0,0,8.55,0c1.3,2.69.37,5.54.57,8.3.1,1.37-.12,2.78-1.57,3.35s-2.86-.09-4.12-1.05C455.85,267.88,456,264,456.05,260Z"/><path class="cls-9" d="M585.28,260.05c2.91.11,5.83.52,8.67-.45.63,3.87.66,7.57-2.35,10.67a4.66,4.66,0,0,1-4.92,1.53c-2-.6-1.37-2.41-1.4-3.81C585.21,265.35,585.27,262.7,585.28,260.05Z"/><path class="cls-9" d="M573.54,251.91c-1.9-.94-1.21-2.57-1.08-4C574.91,248.66,574.56,250.19,573.54,251.91Z"/><path class="cls-13" d="M378.81,128.34c-.89-5.39,1.48-7.3,6.62-7,3.63.24,7.31-.24,11-.28,1.58,0,4-.71,4.35,1.27.45,2.39-2.24,2.5-3.83,3-2.67.91-5.44,1.49-8.16,2.23-1.9.52-4.23-.17-5.09,2.84-.42,1.47-2.68.95-4.09.65C377.84,130.74,378.8,129.25,378.81,128.34Z"/><path class="cls-13" d="M354.82,121c1.94.13,4.33.71,6.57.37,5.81-.89,6.07,3.24,6.83,7a2.23,2.23,0,0,1-1,2.59c-1.09.65-2.63,1-3.22,0-2.66-4.5-7.56-3.37-11.39-4.86a7.23,7.23,0,0,1-1-.22c-1.89-1-5.73-.36-5.24-3.35s3.94-1.09,6.05-1.51A13.92,13.92,0,0,1,354.82,121Z"/><path class="cls-13" d="M377.39,123.7c-.25,2.69-1.52,4.51-4.35,4.37-2.58-.12-3.75-1.94-3.73-4.39,0-2.62,1.08-4.62,4-4.62S377.16,121.17,377.39,123.7Z"/><path class="cls-13" d="M377.34,133.18c-.3,2.21-1.43,3.73-3.71,3.87-2.6.17-4-1.45-4.07-3.87a3.75,3.75,0,0,1,3.61-4C375.57,129.07,376.93,130.8,377.34,133.18Z"/><path class="cls-12" d="M550.22,380q.07,28,.2,55.92a5.09,5.09,0,0,1-2,4.27,140.69,140.69,0,0,0-17.33,17.19c-2.58,3.07-6.21,3.51-9.29.71-7-6.37-13.8-13-20.65-19.53-1.39-1.34-.77-3.16-.76-4.76q.06-27,.23-53.93Zm-20,29a17.65,17.65,0,0,1,1.86-1.52c6-3.72,7.89-8.8,5.56-14.82s-8.49-9.78-14.16-8.57c-5.86,1.25-10,6.87-10.16,13.17-.11,5.53,3.48,8.62,7.09,11.79.68,2.56-1.51,6,1.35,7.71,4.26,2.6,8.57-.28,8.52-5.3C530.26,410.63,530.23,409.81,530.21,409Zm-4.76,23.17c-3.85,0-7.24,3.67-7.34,8-.1,4.07,2.5,6.57,6.95,6.68s8.12-3,8.08-7A8.06,8.06,0,0,0,525.45,432.16Z"/><path class="cls-13" d="M550.22,380l-49.63-.13c-.61-8.45-.61-8.45,7.48-8.46,12.11,0,24.23.31,36.33-.15,5.2-.2,6.88,1.39,6,6.27C550.27,378.29,550.28,379.13,550.22,380Z"/><path class="cls-14" d="M581.29,410c0-4.79,0-9.58,0-14.37,0-1.24-.76-3.49,1.74-3.09,1.68.26,4.33-.12,4.21,3,0,1.31.1,2.64,0,4a18.64,18.64,0,0,0,3,12.17c2.69,4.12,1.17,6.89-3.33,7.17C587.88,412.48,587.43,411.79,581.29,410Z"/><path class="cls-9" d="M581.29,410c6.14,1.81,6.59,2.5,5.7,8.84-3.37,3-7,2.88-9.3-.74S577.77,411.67,581.29,410Z"/><path class="cls-15" d="M559.5,225.87l.87.9c-.15,2.26.15,4.18,3.13,4l.06,0c-1.15,4.83,3.83,7.51,4.15,11.87.17,2.26,2.28,4.87,1.06,6.61-1.72,2.46-4,4.6-5.88,7s-6,.31-6.58-2.78c-.43-2.46.33-5.5-3.13-6.51l-.85-1.14a1.84,1.84,0,0,0-2-1.93l0,0-1.37-.83a.62.62,0,0,1-.66-.15c-.23-.5-.52-.66-.95-.2l-2-.13c-2.86-3.13-4.58-1.55-6,1.44l0,0c-1.51,0-3.25-.23-2.73,2.25l0-.09c-1.17.17-1.25,1-1.15,1.93l.08.1c-3.81,2.1-2.62,6.07-3.11,9.22-.83,5.35-4,7.1-8.63,4.25s-9.17-5.4-7.57-12.14c.49-2.05-.76-3.51-3.13-3.49-.27-.32-.55-.63-.83-.94L511.18,244l0,.09c-1.91-3.86-5.27-3.69-8.63-2.85a21.34,21.34,0,0,0-5.38,2.49c-1.3.75-2.41,1.58-2.89-.62-.68-3-2.91-4.21-5.6-5-3.46-1-2.55-2.34-.34-3.83,2.76-1.84,5.59-3.59,8.25-5.57,1.62-1.21,4-2.14,3.22-5-.19-.7-.1-1.33.65-1.63,10.64-4.29,20.65-11.06,33.08-8.27a3.6,3.6,0,0,0,3.74-.79,2.2,2.2,0,0,1,2.11.67c.22.59.28,1.47.7,1.69.67.36,1.13-.34,1.42-1l1.84.61,1.12.75,0-.09c.44,5.19,6.24,4.23,8.57,7.44A6.77,6.77,0,0,0,559.5,225.87Z"/><path class="cls-13" d="M545.3,242.58l2,.13.95.2a.62.62,0,0,0,.66.15l1.37.83,0,0,2,1.93.85,1.14c.76,2.87,1.7,5.72.47,8.72-1.82,4.45-6.5,7.59-10.44,6.92-4.69-.81-8.09-5.2-8-10.49,0-1.32.24-2.64.36-3.95l-.08-.1a2.09,2.09,0,0,0,1.15-1.93l0,.08a4.84,4.84,0,0,0,2.73-2.24l0,0Z"/><path class="cls-13" d="M512.26,245.09c.28.31.56.62.83.94,1.52,3.35,3,6.63,1.12,10.44-2.36,4.73-6.92,7.08-11.37,5.56a10.36,10.36,0,0,1-6.52-12,9.53,9.53,0,0,1,10.55-7.09,29.71,29.71,0,0,1,4.29,1.19l0-.09Z"/><path class="cls-14" d="M559.5,225.87a6.77,6.77,0,0,1-6.5-2.66c-2.33-3.21-8.13-2.25-8.57-7.44A36.24,36.24,0,0,1,559.5,225.87Z"/><path class="cls-14" d="M563.5,230.79c-3,.16-3.28-1.76-3.13-4A6.62,6.62,0,0,1,563.5,230.79Z"/><path class="cls-14" d="M541.49,214.5c-.29.62-.75,1.32-1.42,1-.42-.22-.48-1.1-.7-1.69Z"/><path class="cls-14" d="M544.45,215.86l-1.12-.75Z"/><path class="cls-7" d="M520.4,409c-3.61-3.17-7.2-6.26-7.09-11.79.13-6.3,4.3-11.92,10.16-13.17,5.67-1.21,11.82,2.52,14.16,8.57s.41,11.1-5.56,14.82a17.65,17.65,0,0,0-1.86,1.52Zm10.81-12.77c-.7-3-2.33-5.31-5.61-5.24s-5.06,2.49-5.06,5.6c0,3.3,2.14,5.23,5.41,5.15S530.81,399.45,531.21,396.27Z"/><path class="cls-7" d="M525.45,432.16a8.06,8.06,0,0,1,7.69,7.69c0,3.94-3.6,7.09-8.08,7s-7-2.61-6.95-6.68C518.21,435.83,521.6,432.14,525.45,432.16Z"/><path class="cls-13" d="M520.4,409l9.81-.05c0,.82,0,1.64.06,2.46.05,5-4.26,7.9-8.52,5.3C518.89,415,521.08,411.6,520.4,409Z"/><path class="cls-14" d="M545.3,242.58l-6,1.44C540.72,241,542.44,239.45,545.3,242.58Z"/><path class="cls-14" d="M539.37,244a4.84,4.84,0,0,1-2.73,2.24C536.12,243.77,537.86,244,539.37,244Z"/><path class="cls-14" d="M552.33,245.85l-2-1.93A1.84,1.84,0,0,1,552.33,245.85Z"/><path class="cls-14" d="M536.6,246.16a2.09,2.09,0,0,1-1.15,1.93C535.35,247.16,535.43,246.33,536.6,246.16Z"/><path class="cls-14" d="M512.26,245.09,511.18,244Z"/><path class="cls-14" d="M548.29,242.91l-.95-.2C547.77,242.25,548.06,242.41,548.29,242.91Z"/><path class="cls-14" d="M550.32,243.89l-1.37-.83Z"/><path class="cls-13" d="M531.21,396.27c-.4,3.18-1.92,5.44-5.26,5.51s-5.4-1.85-5.41-5.15c0-3.11,1.73-5.52,5.06-5.6S530.51,393.26,531.21,396.27Z"/></svg>